# xmcd
#
# Track frame offsets: 
#        150
#        20185
#        32977
#        46052
#        62470
#        78125
#        87425
#        98460
#        113180
#        121522
#        133810
#        146892
#        160687
#        176905
#        185272
#        198315
#        213562
#        220385
#        245565
#        258900
#        261087
#        263450
#        278637
#
# Disc length: 3921 seconds
#
# Revision: 3
# Processed by: cddbd v1.5.2PL0 Copyright (c) Steve Scherf et al.
# Submitted via: ExactAudioCopy v0.95b4
#
DISCID=450f4f17
DTITLE=Various Artist - The Rocky Horror Picture Show - 21st Annivers
DTITLE=ary
DYEAR=1991
DGENRE=Soundtrack
TTITLE0=Science Fiction/Double Feature
TTITLE1=Dammit Janet
TTITLE2=Over At The Frankenstein Place
TTITLE3=The Time Warp
TTITLE4=Sweet Transvestite
TTITLE5=Sword Of Damocles
TTITLE6=I Can Make You A Man
TTITLE7=Hot Patootie-Bless My Soul
TTITLE8=I Can Make You A Man (Reprise)
TTITLE9=Touch - A Touch - A Touch - A Me
TTITLE10=Eddie
TTITLE11=Rose Tint My World
TTITLE12=Fanfare/Don't Dream It
TTITLE13=Wild And Untamed Thing
TTITLE14=I'm Going Home
TTITLE15=Super Heroes
TTITLE16=Science Fiction/Double Feature (Reprise)
TTITLE17=The Time Warp (Remix 1989 Extended Version)
TTITLE18=Rocky Horror Picture Show (Movie Trailer)
TTITLE19=Rocky Horror Radio Commercial (1)
TTITLE20=Rocky Horror Radio Commercial (2)
TTITLE21=Once In A While
TTITLE22=Sweet Transvestite (Karaoke)
EXTD=
EXTT0=
EXTT1=
EXTT2=
EXTT3=
EXTT4=
EXTT5=
EXTT6=
EXTT7=
EXTT8=
EXTT9=
EXTT10=
EXTT11=
EXTT12=
EXTT13=
EXTT14=
EXTT15=
EXTT16=
EXTT17=
EXTT18=
EXTT19=
EXTT20=
EXTT21=
EXTT22=
PLAYORDER=
